# xmcd
#
# Track frame offsets:
#	150
#	22556
#	45547
#	76783
#	102641
#	129254
#	153878
#	175141
#	205972
#
# Disc length: 3008 seconds
#
# Revision: 1971452044
# Processed by: cddbd v1.5.2PL0 Copyright (c) Steve Scherf et al.
# Submitted via: EZCDAudioConverter 8.0.2.1
#
DISCID=5f0bbe09
DTITLE=Thành Lê - Vol 02. "Lặng"
DYEAR=2010
DGENRE=Traditional Country
TTITLE0=Người ngoài phố
TTITLE1=Thu sầu
TTITLE2=Hoa mười giờ
TTITLE3=Gõ cửa trái tim
TTITLE4=Bản tình cuối
TTITLE5=Mưa rừng
TTITLE6=THương hoài ngàn năm
TTITLE7=Những đồi hoa sim
TTITLE8=Đám cưới trên đường quê
EXTD=
EXTT0=
EXTT1=
EXTT2=
EXTT3=
EXTT4=
EXTT5=
EXTT6=
EXTT7=
EXTT8=
PLAYORDER=
